<?xml version="1.0" encoding="utf-8"?>
<svg version="1.1" xmlns="http://www.w3.org/2000/svg" viewBox="0 0 300 300" xml:space="preserve">
<path fill="#6ACBFF" d="M150,150c-41.4,0-75-33.6-75-75s33.6-75,75-75C150,46,150,110.2,150,150z"/>
<path fill="#FFA18A" d="M150,150c0-41.4,33.6-75,75-75s75,33.6,75,75C254,150,189.8,150,150,150z"/>
<path fill="#FFE16A" d="M150,150c41.4,0,75,33.6,75,75s-33.6,75-75,75C150,254,150,189.8,150,150z"/>
<path fill="#AAFFBD" d="M150,150c0,41.4-33.6,75-75,75S0,191.4,0,150C46,150,110.2,150,150,150z"/>
</svg>
