<svg id="图层_1" data-name="图层 1" xmlns="http://www.w3.org/2000/svg" viewBox="0 0 326.5 75.75"><defs><style>.cls-1{fill:none;fill-rule:evenodd;}</style></defs><title>logo-twt-blue [转换]</title><path class="cls-1" d="M400.5,272A21.49,21.49,0,0,0,388,254.5h-1.5c-1.57-.59-5.89-2.27-8.5-1.5v0.5l-6,1V255a19.82,19.82,0,0,1-4,1.5c-1-1.55-2.81-2.05-4.5-3V253h-1v-0.5h-1V252H360v-0.5l-3.5-.5v-0.5H356V249l3-2.5,0.5-1h1l0.5-1,2-.5v-0.5l2-.5v-0.5h2c7.38-2.35,15.47,1.25,18.5,5a4.29,4.29,0,0,0,2-1V246h1v-0.5h1V245H391v-0.5h2.5V244H397v0.5h2.5V245H401v0.5h1V246h1l0.5,1h1l0.5,1,2,1.5v1l1,0.5v1h0.5v1H409v1.5h0.5V263H409v1h-0.5v1.5l-1,.5v1l-1.5,1v1A17.85,17.85,0,0,1,400.5,272Z" transform="translate(-317 -241.75)"/><path class="cls-1" d="M473,247.5h4V248h-0.5v2.5H476V251h8c0.15,9.16-2.25,15.72-6,21l-3,2.5-2.5,3-5.5,3v-3c3.26-1.49,9.08-7.3,10-11h0.5V266H477c-1.62-1.83-5.08-2.51-7.5-3.5V260H469a3.06,3.06,0,0,1-2.5,1.5V259C469.83,257.21,472.92,252.56,473,247.5Z" transform="translate(-317 -241.75)"/><path class="cls-1" d="M487,247.5h3.5V258l5.5,2,0.5,1h1l0.5,1,1.5,0.5v4L498,266v-0.5l-1.5-.5-0.5-1-5.5-3v19.5H487v-33Z" transform="translate(-317 -241.75)"/><path class="cls-1" d="M585,247.5l-1.5,5.5H583v1h-0.5v1H582v25.5h-3.5v-21l-4,2v-3h1c0.67-1.25,1.88-1.63,2.5-2.5v-1l1-.5v-1h0.5l0.5-2h0.5c0.4-.91.28-3.58,1-4H585Z" transform="translate(-317 -241.75)"/><path class="cls-1" d="M590,247.5h4V248h-0.5l-0.5,3.5h14.5v2H596v7h9.5V263H596v6.5h11V272H596v8.5h-3.5v-27h-1c-0.6,2.38-5,5.48-7.5,6V257A11.24,11.24,0,0,0,590,247.5Z" transform="translate(-317 -241.75)"/><path class="cls-1" d="M625,247.5h4v3h13.5v6h-3V253h-25v3.5h-3v-6H625v-3Z" transform="translate(-317 -241.75)"/><path class="cls-1" d="M432.5,249.5h29V252H449v8h14.5v2.5h-14c0.17,5.14,4.79,10.37,8,12.5l2,0.5,0.5,1h1V277l2.5,0.5v3H463V280l-2.5-.5V279H459v-0.5h-1V278h-1l-0.5-1-2-.5-0.5-1h-1l-1-1.5-3.5-3v-1H448a6.21,6.21,0,0,0-1-1.5V269l-5.5,6c-3.12,2.25-7.25,3.95-11,5.5v-3c5.64-1.12,14.27-8.43,14.5-15H430.5V260H445v-8H432.5v-2.5Z" transform="translate(-317 -241.75)"/><path class="cls-1" d="M504.5,249.5h29V252H521v8h14.5v2.5h-14c0.17,5.14,4.79,10.37,8,12.5l2,0.5,0.5,1h1V277l2.5,0.5v3H535V280l-2.5-.5V279H531v-0.5h-1V278h-1l-0.5-1-2-.5-0.5-1h-1l-1-1.5-3.5-3v-1H520a6.21,6.21,0,0,0-1-1.5V269l-5.5,6c-3.12,2.25-7.25,3.95-11,5.5v-3c5.64-1.12,14.27-8.43,14.5-15H502.5V260H517v-8H504.5v-2.5Z" transform="translate(-317 -241.75)"/><path class="cls-1" d="M540.5,250h29v3H557v22.5h14.5V278h-33v-2.5H553V253H540.5v-3Z" transform="translate(-317 -241.75)"/><path class="cls-1" d="M328,284l-1-9h0.5v-3.5H328V270h0.5v-1.5H329V267h0.5v-1H330v-1l1-.5v-1l1-.5v-1l1.5-1,2.5-3h1l0.5-1h1l0.5-1,2-.5V255h1v-0.5h1.5c8.68-3.41,21.38.56,24.5,6a5.41,5.41,0,0,0,1-1h1l0.5-1h1V258l2-.5V257H375v-0.5h2.5V256c2.1-.6,7.64.41,9,1v0.5h1V258l2,0.5,1,1.5h1l0.5,1,2,1.5v1l1,0.5,0.5,2H396v1h0.5v1H397v11.5h-0.5l-1,3H395v1l-1,.5v1l-2,1.5-0.5,1h-1l-1,1.5h-1v0.5h-1V290h-1v0.5h-1V291h-1l-0.5,1-3,1-0.5,1-2,.5-0.5,1-3,1-0.5,1-3,1-0.5,1-2,.5-0.5,1-3,1-0.5,1-3,1-0.5,1-3,1-0.5,1h-1v0.5h-1l-0.5,1-3,1-0.5,1-2,.5-0.5,1h-1v0.5h-1V313l-1.5.5-1,1.5h-1.5v0.5l-3,1V317H339v0.5h-9V317h-2v-0.5h-1V316l-2-.5-0.5-1h-1l-2.5-3-1-.5v-1l-1-.5-0.5-2H318l-0.5-3H317v-9h0.5V294H318l1-3h0.5v-1l1.5-1C322.95,287,324.51,284.42,328,284Z" transform="translate(-317 -241.75)"/><path class="cls-1" d="M480.5,253.5H475a12.74,12.74,0,0,1-5,6V260h1v0.5l3.5,0.5v0.5l3,1V263c1,0.17.62-.24,1-0.5C479.43,261.51,480.46,255.65,480.5,253.5Z" transform="translate(-317 -241.75)"/><path class="cls-1" d="M614.5,256.5h25v2h-14c-0.72,1.28-4,4.1-5.5,4.5v0.5h14V263h0.5c-0.54-1.18-1.15-1.62-1.5-3h3c1.31,2.32,3.32,3.94,4,7h-3.5l-0.5-1.5-7.5.5v3.5h12V272h-12v4.5h15V279h-33v-2.5H625V272H613.5v-2.5H625V266H614.5v-2.5h1A40.14,40.14,0,0,1,621,259v-0.5h-6.5v-2Z" transform="translate(-317 -241.75)"/><path class="cls-1" d="M483.5,300c2.8,0.64,8.36,5.89,6,10H489c-0.64.84-1.35,1.24-2,2a26.79,26.79,0,0,1-5.5-.5c-0.84-1.42-1.73-1.36-2-3.5a5.84,5.84,0,0,1,2-1v1c1.57,0.94,1.42,1.85,4,2,1.14-1.34,1.87-.91,2-3.5l-2.5-3h-1l-3-3.5h-0.5v-4a14.14,14.14,0,0,1,1.5-1.5c0.45-.51,3.09-1.56,4.5-1,0.51,0.2,3.34,2.63,3,3.5l-1,.5V298c-1,.33-1.93-1.12-2.5-1.5V296h-2.5l-0.5,1.5h-0.5C482.48,297.93,483.31,299.13,483.5,300Z" transform="translate(-317 -241.75)"/><path class="cls-1" d="M526.5,293.5h2v18h-2v-1l-1.5.5v0.5h-1V312c-4.22,1.48-8.23-2.33-9-4.5-1.39-3.94,1.73-7.95,4-8.5,0.94-1,.25,0,1.5-0.5,2.65-1,4.07.41,6,1.5v-6.5Z" transform="translate(-317 -241.75)"/><path class="cls-1" d="M531.5,293.5H534l0.5,2H534c-0.63,1-.51.83-2,1a5.84,5.84,0,0,1-1-2C531.57,293.93,531.2,294.5,531.5,293.5Z" transform="translate(-317 -241.75)"/><path class="cls-1" d="M429.5,294H439v2h-3.5v15.5H433V296h-3.5v-2Z" transform="translate(-317 -241.75)"/><path class="cls-1" d="M442.5,294a50.24,50.24,0,0,0,2.5,8l0.5,3.5H446v-1c1.11-1,.82-2.08,1.5-3.5H448v-1.5h0.5v-1H449V297h0.5v-1H450v-1.5h0.5c0.57-.57,0-0.2,1-0.5l1.5,5h0.5v1H454v1.5h0.5V303H455l0.5,2.5H456v-1c0.9-.92,2.9-8.49,3-10.5h2.5l-0.5,3h-0.5v2H460l-0.5,3.5H459l-0.5,3.5H458l-1,5h-0.5c-0.57.57,0,.2-1,0.5-0.77-4.39-3.52-7.75-4.5-12h-0.5l-1.5,5h-0.5V306H448v1h-0.5v1.5H447l-0.5,2.5H446c-0.57.57,0,.2-1,0.5L440,294h2.5Z" transform="translate(-317 -241.75)"/><path class="cls-1" d="M462.5,294h10v2h-4v15.5h-2V296h-4v-2Z" transform="translate(-317 -241.75)"/><path class="cls-1" d="M494,294h2.5v4.5H499v2h-2.5v11H494v-11h-2v-2h2V294Z" transform="translate(-317 -241.75)"/><path class="cls-1" d="M541.5,298c2.59,0,3.57.59,5.5,1l1.5,2H549c0.88,1.36,1,3.75,1,6h-0.5v1.5l-1,.5v1H548c-0.68.74-.25,0.67-1.5,1-0.69.82-4,1.75-6,1v-0.5l-2-.5v-0.5l-1-.5v-1l-1-.5-0.5-5h0.5L537,301l2-1.5V299l2.5-.5V298Z" transform="translate(-317 -241.75)"/><path class="cls-1" d="M500.5,298.5H503V308c1.06,0.61,1.09,1.13,2.5,1.5V310c1,0.54,2.62-.28,3-0.5V309h1a67.09,67.09,0,0,0,.5-10.5h2.5a51.37,51.37,0,0,1-1,11.5,11,11,0,0,0-2.5,2,30.34,30.34,0,0,1-6-.5l-1-1.5h-0.5v-1H501Z" transform="translate(-317 -241.75)"/><path class="cls-1" d="M531.5,298.5H534v13h-2.5v-13Z" transform="translate(-317 -241.75)"/><path class="cls-1" d="M525.5,301.5h-1l-0.5-1h-4c-0.57.57,0,.2-1,0.5a27.36,27.36,0,0,0-2,3v2h0.5c0.74,2,.85,3,3,3.5,2.47,2.34,5-1.62,6-2.5v-4l-1-.5v-1Z" transform="translate(-317 -241.75)"/><path class="cls-1" d="M541,300.5c-1.72,2.86-2.54,1.31-2.5,6.5,0.57,0.57.2,0,.5,1,2.91,1.74,2.11,2.35,6.5,1.5l1-1.5H547l0.5-5a6.66,6.66,0,0,1-2.5-2.5h-4Z" transform="translate(-317 -241.75)"/></svg>